<?xml version="1.0" standalone="no"?>
<!DOCTYPE svg PUBLIC "-//W3C//DTD SVG 20010904//EN"
 "http://www.w3.org/TR/2001/REC-SVG-20010904/DTD/svg10.dtd">
<svg version="1.0" xmlns="http://www.w3.org/2000/svg"
 width="280.000000pt" height="136.000000pt" viewBox="0 0 280.000000 136.000000"
 preserveAspectRatio="xMidYMid meet">
<metadata>
Created by potrace 1.10, written by Peter Selinger 2001-2011
</metadata>
<g transform="translate(0.000000,136.000000) scale(0.100000,-0.100000)"
fill="#000000" stroke="none">
<path d="M1322 1257 c-6 -6 -12 -28 -14 -47 -2 -28 -9 -38 -36 -50 -31 -15
-87 -93 -78 -109 8 -12 -51 -166 -63 -165 -6 1 -19 2 -28 3 -10 1 -33 16 -52
33 l-35 31 28 22 28 23 -21 21 c-26 26 -48 26 -80 2 -25 -19 -24 -54 1 -49 6
2 13 -5 15 -14 3 -11 -3 -18 -19 -20 -20 -3 -24 -11 -29 -55 -4 -29 -10 -64
-13 -78 -5 -18 -2 -25 8 -25 15 0 26 -42 26 -96 0 -21 -5 -34 -12 -34 -36 0
-299 -21 -337 -26 -23 -4 -39 -9 -34 -13 5 -3 40 -51 78 -106 101 -148 85
-136 162 -115 197 57 457 92 688 93 240 1 441 -29 564 -85 67 -31 68 -31 46
-13 -71 58 -406 198 -434 180 -5 -3 -4 11 1 29 8 24 18 36 32 38 19 3 22 12
28 98 4 53 7 100 8 105 2 6 2 27 1 48 -1 26 -5 37 -17 37 -11 0 -14 -6 -9 -21
4 -12 3 -19 -1 -16 -5 3 -10 -42 -11 -99 -2 -90 -5 -106 -23 -124 -11 -11 -18
-25 -15 -30 14 -23 -14 -8 -29 15 -9 14 -23 25 -31 25 -20 0 -19 16 4 39 17
17 34 91 21 91 -10 0 -5 50 9 93 7 20 16 35 19 33 4 -2 5 16 3 40 -3 41 -21
64 -21 27 0 -29 -34 -133 -43 -133 -11 0 0 83 16 119 17 37 39 61 50 54 6 -3
7 -1 3 6 -4 6 -12 9 -17 6 -15 -10 -10 2 15 40 14 21 22 43 19 53 -5 14 -2 13
13 -3 19 -20 49 -109 33 -100 -4 3 -10 1 -14 -5 -3 -5 3 -10 14 -10 17 0 21
-6 21 -30 0 -23 -3 -28 -17 -23 -12 5 -11 1 5 -15 36 -36 45 -28 37 31 -4 28
-11 60 -16 69 -5 9 -9 28 -9 43 0 14 -7 41 -14 60 -11 26 -21 35 -39 35 -20 0
-28 -9 -41 -40 -9 -22 -16 -48 -16 -57 0 -9 -7 -21 -15 -27 -16 -12 -55 -151
-55 -197 0 -24 -15 -39 -41 -39 -14 0 -11 48 4 53 6 3 -1 6 -18 7 -29 1 -29 2
-7 12 25 13 31 58 9 77 -17 13 -42 -4 -52 -36 -5 -17 -2 -23 10 -23 9 0 13 -5
10 -11 -4 -6 -10 -8 -13 -5 -3 3 -14 -1 -24 -11 -20 -18 -18 -28 -23 127 -3
62 -17 100 -48 124 -23 18 -28 28 -22 42 14 32 13 42 -2 63 -16 24 -26 26 -41
8z m47 -139 c15 -42 14 -65 -3 -75 -9 -6 -15 -41 -19 -116 -3 -59 -9 -113 -13
-119 -5 -7 -7 -29 -5 -49 1 -20 -2 -40 -7 -43 -5 -3 -8 7 -6 22 4 26 4 26 -6
-3 -5 -16 -8 -39 -5 -50 3 -11 2 -15 -1 -8 -3 7 -12 9 -20 6 -9 -3 -14 2 -14
17 0 11 3 19 8 17 13 -9 5 148 -11 185 -8 20 -13 39 -9 42 3 3 6 16 7 29 1 12
5 33 9 46 5 15 5 21 -2 17 -5 -3 -13 6 -16 19 -4 14 -11 23 -16 20 -5 -3 -7 1
-4 9 3 9 11 14 17 13 7 -1 12 6 12 16 0 22 30 41 51 33 8 -3 14 -1 14 4 0 21
29 -3 39 -32z m46 -205 c4 -24 10 -43 14 -43 3 0 6 -28 7 -62 0 -35 4 -93 9
-129 l8 -67 -44 9 c-24 4 -61 8 -83 9 -33 0 -37 2 -26 15 7 8 18 15 25 15 19
0 49 172 48 283 0 53 4 97 9 97 4 0 9 8 10 18 0 9 4 -10 8 -43 5 -33 11 -79
15 -102z m-174 71 c-8 -31 -8 -56 -1 -82 12 -45 14 -137 5 -210 l-7 -53 -97 4
c-75 4 -95 7 -92 18 5 15 5 20 -5 147 -4 54 -3 82 4 82 6 0 14 -4 17 -10 3 -5
21 -10 40 -10 18 0 35 -5 37 -12 8 -24 38 1 38 32 0 28 18 79 53 149 10 20 13
21 15 7 2 -10 -1 -38 -7 -62z m-231 -84 c-14 -4 -18 -8 -10 -9 12 -1 14 -14
12 -71 -4 -73 -15 -87 -43 -53 -11 13 -11 17 -2 20 10 4 10 10 2 24 -12 23 -9
68 4 87 5 6 21 12 36 11 l26 -1 -25 -8z m491 -49 c2 -39 -9 -123 -17 -131 -18
-17 -30 81 -18 142 7 34 34 27 35 -11z m110 -68 c-7 -25 -23 -60 -36 -77 -19
-26 -21 -33 -9 -43 7 -7 23 -13 34 -13 14 0 25 -11 35 -32 7 -18 10 -34 6 -36
-4 -1 -34 4 -67 11 -48 12 -59 18 -57 33 1 10 3 56 5 102 1 67 5 82 17 82 9 0
30 9 46 20 36 24 41 15 26 -47z m-592 -69 c12 -27 7 -41 -29 -72 -13 -12 -12
-13 8 -9 12 3 22 2 22 -1 0 -4 12 -8 28 -8 135 -7 147 -9 154 -24 6 -13 7 -13
7 2 1 17 34 33 49 24 5 -3 7 6 4 19 -2 15 0 25 7 25 6 0 11 -9 11 -21 0 -13
10 -23 30 -30 17 -6 30 -14 30 -17 0 -4 22 -8 48 -9 62 -3 94 22 90 72 -1 19
1 37 5 41 4 4 7 -8 8 -27 0 -19 3 -43 5 -54 2 -11 6 -30 8 -43 3 -28 16 -41
16 -18 0 13 5 16 18 11 9 -4 32 -7 50 -6 31 2 43 -11 22 -24 -15 -9 -12 -25 5
-25 8 0 12 6 10 13 -3 6 -1 18 4 26 7 11 14 10 37 -5 15 -11 29 -18 31 -17 6
5 63 -10 68 -16 2 -4 -1 -13 -7 -21 -8 -12 -9 -12 -4 3 3 11 0 17 -10 17 -8 0
-12 -4 -9 -10 3 -6 -1 -10 -9 -10 -9 0 -16 7 -16 15 0 8 -7 15 -15 15 -9 0
-12 -6 -9 -17 5 -14 4 -15 -4 -4 -7 10 -15 11 -28 3 -11 -6 -27 -7 -40 -2 -22
9 -168 6 -269 -5 -30 -3 -42 -2 -31 3 18 8 18 9 2 15 -10 4 -30 4 -44 0 l-27
-7 25 -7 c24 -7 24 -7 -5 -9 -32 -2 -39 -3 -125 -18 -36 -6 -62 -6 -77 1 -17
7 -27 6 -39 -4 -17 -14 -183 -61 -219 -62 -11 0 -23 -5 -27 -11 -6 -10 -57 31
-58 47 0 10 -52 81 -62 85 -5 2 -8 10 -8 17 0 8 -8 19 -18 25 -16 11 -16 11 1
6 9 -3 17 -2 17 3 0 10 87 22 202 27 l87 4 4 -33 c3 -27 4 -25 5 12 1 24 5 41
9 38 12 -13 32 28 33 66 0 43 12 48 29 11z"/>
<path d="M652 231 l2 -119 40 3 c23 2 62 4 89 4 81 1 113 58 61 106 -15 14
-22 25 -16 25 17 0 34 38 27 59 -9 28 -49 41 -131 41 l-74 0 2 -119z m136 52
c3 -20 -1 -23 -32 -23 -32 0 -36 3 -36 26 0 23 3 25 33 22 24 -2 33 -8 35 -25z
m-78 -43 c0 -19 -17 -36 -26 -27 -3 2 -2 16 2 31 7 28 24 26 24 -4z m87 -36
c8 -21 -6 -32 -42 -36 -26 -3 -30 0 -33 25 -3 25 -1 27 33 27 23 0 38 -5 42
-16z"/>
<path d="M910 232 l0 -118 95 2 c52 1 95 4 95 8 0 3 0 15 0 27 0 19 -5 21 -60
17 -59 -3 -60 -2 -60 23 0 25 1 26 55 21 55 -4 55 -4 55 24 0 29 0 29 -55 26
-50 -4 -55 -2 -55 17 0 19 6 21 60 21 57 0 60 1 60 25 0 25 0 25 -95 25 l-95
0 0 -118z m49 58 c1 -11 1 -30 2 -41 0 -12 -5 -27 -10 -32 -8 -8 -11 5 -11 41
0 29 4 52 9 52 6 0 10 -9 10 -20z"/>
<path d="M1150 233 l26 -118 34 0 c32 0 34 2 47 50 7 28 13 60 13 73 0 26 16
30 24 5 3 -10 12 -43 21 -75 15 -54 17 -56 50 -56 19 0 35 3 35 7 0 13 40 199
46 215 5 13 -1 16 -29 16 -35 0 -35 0 -42 -52 -4 -29 -11 -62 -15 -73 -6 -17
-8 -15 -15 15 -20 99 -26 110 -61 110 -32 0 -33 -2 -45 -57 -18 -84 -26 -94
-33 -42 -16 100 -15 99 -50 99 l-32 0 26 -117z m80 -54 c0 -10 -4 -20 -9 -23
-11 -7 -35 20 -27 32 9 16 36 9 36 -9z"/>
<path d="M1514 331 c-55 -33 -68 -115 -28 -176 34 -51 139 -58 184 -10 28 29
38 102 20 145 -24 58 -114 79 -176 41z m104 -43 c7 -7 12 -33 12 -58 0 -50
-13 -70 -44 -70 -33 0 -46 14 -52 51 -9 52 10 89 44 89 15 0 33 -5 40 -12z"/>
<path d="M1789 335 c-57 -31 -66 -143 -15 -194 22 -22 35 -26 82 -26 49 0 59
4 80 28 31 36 30 43 -5 55 -25 9 -30 7 -40 -14 -12 -28 -51 -33 -71 -9 -7 9
-13 33 -13 55 0 64 43 92 84 54 14 -12 24 -14 46 -7 l28 10 -32 31 c-26 26
-39 32 -75 32 -24 -1 -55 -7 -69 -15z"/>
<path d="M2060 339 c0 -5 -18 -58 -40 -116 -22 -59 -40 -107 -40 -108 0 -1 15
-2 34 -3 27 -1 35 3 40 21 5 20 11 22 50 19 34 -3 47 -9 51 -23 5 -14 16 -19
42 -19 19 0 33 3 31 8 -1 4 -21 58 -43 120 l-40 112 -42 0 c-24 0 -43 -5 -43
-11z m65 -106 c6 -31 5 -33 -23 -33 -30 0 -30 1 -20 33 6 17 13 39 15 47 4 13
5 13 13 0 4 -8 11 -30 15 -47z"/>
</g>
</svg>
